<?xml version="1.0" encoding="UTF-8" standalone="no"?>
<!-- Created with Inkscape (http://www.inkscape.org/) -->

<svg
   version="1.1"
   id="svg1"
   width="1122.76"
   height="293.90668"
   viewBox="0 0 1122.76 293.90668"
   sodipodi:docname="CS_FundedbytheEU_RGB_POS.eps"
   xmlns:inkscape="http://www.inkscape.org/namespaces/inkscape"
   xmlns:sodipodi="http://sodipodi.sourceforge.net/DTD/sodipodi-0.dtd"
   xmlns="http://www.w3.org/2000/svg"
   xmlns:svg="http://www.w3.org/2000/svg">
  <defs
     id="defs1" />
  <sodipodi:namedview
     id="namedview1"
     pagecolor="#ffffff"
     bordercolor="#000000"
     borderopacity="0.25"
     inkscape:showpageshadow="2"
     inkscape:pageopacity="0.0"
     inkscape:pagecheckerboard="0"
     inkscape:deskcolor="#d1d1d1">
    <inkscape:page
       x="0"
       y="0"
       inkscape:label="1"
       id="page1"
       width="1122.76"
       height="293.90668"
       margin="0"
       bleed="0" />
  </sodipodi:namedview>
  <g
     id="g1"
     inkscape:groupmode="layer"
     inkscape:label="1">
    <g
       id="group-R5">
      <path
         id="path2"
         d="M 100.293,101.059 H 3049.74 V 2103.9 H 100.293 V 101.059"
         style="fill:#ffffff;fill-opacity:1;fill-rule:nonzero;stroke:none"
         transform="matrix(0.13333333,0,0,-0.13333333,0,293.90667)" />
      <path
         id="path3"
         d="M 157.012,158.27 H 2993.03 v 1890.7 H 157.012 V 158.27"
         style="fill:#2a3c93;fill-opacity:1;fill-rule:nonzero;stroke:none"
         transform="matrix(0.13333333,0,0,-0.13333333,0,293.90667)" />
      <path
         id="path4"
         d="m 1514.59,1637.02 59.84,43.67 59.85,-43.67 -22.78,70.63 60.79,43.67 h -74.93 l -22.93,71.48 -22.93,-71.56 -74.88,0.08 60.74,-43.67 -22.77,-70.63"
         style="fill:#fbca07;fill-opacity:1;fill-rule:nonzero;stroke:none"
         transform="matrix(0.13333333,0,0,-0.13333333,0,293.90667)" />
      <path
         id="path5"
         d="m 1204.9,1553.82 59.84,43.67 59.81,-43.67 -22.74,70.63 60.75,43.67 h -74.93 l -22.92,71.56 -22.93,-71.64 -74.89,0.08 60.74,-43.67 -22.73,-70.63"
         style="fill:#fbca07;fill-opacity:1;fill-rule:nonzero;stroke:none"
         transform="matrix(0.13333333,0,0,-0.13333333,0,293.90667)" />
      <path
         id="path6"
         d="m 1038.14,1512.57 -22.93,-71.64 -74.874,0.08 60.734,-43.67 -22.765,-70.63 59.835,43.67 59.84,-43.67 -22.77,70.63 60.74,43.67 h -74.88 l -22.93,71.56"
         style="fill:#fbca07;fill-opacity:1;fill-rule:nonzero;stroke:none"
         transform="matrix(0.13333333,0,0,-0.13333333,0,293.90667)" />
      <path
         id="path7"
         d="m 955.023,1061.08 59.807,-43.67 -22.736,70.62 60.736,43.68 h -74.877 l -22.93,71.56 -22.929,-71.72 -74.918,0.16 60.777,-43.68 -22.769,-70.62 59.839,43.67"
         style="fill:#fbca07;fill-opacity:1;fill-rule:nonzero;stroke:none"
         transform="matrix(0.13333333,0,0,-0.13333333,0,293.90667)" />
      <path
         id="path8"
         d="m 1061.07,821.48 -22.93,71.559 -22.93,-71.641 -74.874,0.082 60.734,-43.671 -22.765,-70.629 59.835,43.75 59.84,-43.75 -22.77,70.629 60.74,43.671 h -74.88"
         style="fill:#fbca07;fill-opacity:1;fill-rule:nonzero;stroke:none"
         transform="matrix(0.13333333,0,0,-0.13333333,0,293.90667)" />
      <path
         id="path9"
         d="m 1288.1,594.449 -22.93,71.481 -22.89,-71.559 -74.92,0.078 60.74,-43.668 -22.73,-70.633 59.84,43.672 59.8,-43.672 -22.73,70.633 60.74,43.668 h -74.92"
         style="fill:#fbca07;fill-opacity:1;fill-rule:nonzero;stroke:none"
         transform="matrix(0.13333333,0,0,-0.13333333,0,293.90667)" />
      <path
         id="path10"
         d="m 1597.4,512.18 -22.93,71.558 -22.89,-71.636 -74.92,0.078 60.74,-43.668 -22.73,-70.633 59.84,43.672 59.8,-43.672 -22.77,70.633 60.78,43.668 h -74.92"
         style="fill:#fbca07;fill-opacity:1;fill-rule:nonzero;stroke:none"
         transform="matrix(0.13333333,0,0,-0.13333333,0,293.90667)" />
      <path
         id="path11"
         d="m 1906.7,594.449 -22.89,71.481 -22.97,-71.559 -74.84,0.078 60.7,-43.668 -22.73,-70.633 59.84,43.672 59.84,-43.672 -22.81,70.633 60.78,43.668 h -74.92"
         style="fill:#fbca07;fill-opacity:1;fill-rule:nonzero;stroke:none"
         transform="matrix(0.13333333,0,0,-0.13333333,0,293.90667)" />
      <path
         id="path12"
         d="m 2133.81,821.48 -22.97,71.559 -22.97,-71.641 -74.84,0.082 60.78,-43.671 -22.81,-70.629 59.84,43.75 59.84,-43.75 -22.81,70.629 60.78,43.671 h -74.84"
         style="fill:#fbca07;fill-opacity:1;fill-rule:nonzero;stroke:none"
         transform="matrix(0.13333333,0,0,-0.13333333,0,293.90667)" />
      <path
         id="path13"
         d="M 2290.92,1132.57 H 2216 l -22.97,71.56 -22.89,-71.64 -74.92,0.08 60.78,-43.67 -22.74,-70.63 59.77,43.75 59.84,-43.75 -22.73,70.63 60.78,43.67"
         style="fill:#fbca07;fill-opacity:1;fill-rule:nonzero;stroke:none"
         transform="matrix(0.13333333,0,0,-0.13333333,0,293.90667)" />
      <path
         id="path14"
         d="m 2050.99,1327.65 59.84,43.67 59.85,-43.67 -22.81,70.63 60.78,43.59 h -74.85 l -22.97,71.56 -22.96,-71.64 -74.85,0.08 60.78,-43.59 -22.81,-70.63"
         style="fill:#fbca07;fill-opacity:1;fill-rule:nonzero;stroke:none"
         transform="matrix(0.13333333,0,0,-0.13333333,0,293.90667)" />
      <path
         id="path15"
         d="m 1884.67,1739.6 -22.89,-71.64 -74.92,0.16 60.7,-43.75 -22.73,-70.63 59.92,43.75 59.76,-43.75 -22.73,70.63 60.78,43.75 h -75 l -22.89,71.48"
         style="fill:#fbca07;fill-opacity:1;fill-rule:nonzero;stroke:none"
         transform="matrix(0.13333333,0,0,-0.13333333,0,293.90667)" />
      <text
         id="text15"
         xml:space="preserve"
         transform="matrix(1.3333333,0,0,1.3333333,447.38267,115.604)"><tspan
           id="tspan15"
           style="font-variant:normal;font-weight:700;font-size:65px;font-family:Arial;writing-mode:lr-tb;fill:#2a3c93;fill-opacity:1;fill-rule:nonzero;stroke:none"
           x="0"
           dx="0 -0.0098876702 -0.01140139 -0.0099121099 0.0094238296 -0.01088867 0.01040039 -0.0099121099 0.0094238296 0.0094238296 -0.0099121099 -0.0098633002"
           y="0">Financováno </tspan><tspan
           id="tspan16"
           style="font-variant:normal;font-weight:700;font-size:65px;font-family:Arial;writing-mode:lr-tb;fill:#2a3c93;fill-opacity:1;fill-rule:nonzero;stroke:none"
           x="0"
           dx="0 0 0.0094238296 0.01088867 -0.01088867 -0.0099121099 0.0104492 0.0093750097 -0.01088867 -0.0098633002 -0.01142577 -0.0099121099 -0.0098633002 -0.01142577"
           y="78">Evropskou unií</tspan></text>
    </g>
  </g>
</svg>
